REM DIRINDEX 1\2,1\4,1\3\5,1\3\6,1\3\7
REM DIRNAME cjc083,folder01,folder02,folder03,folder04,folder05,folder06
TITLE ""
FILE "CD1Track38.mp3" MP3
  TRACK 01 AUDIO
    TITLE "0:"
    INDEX 01 00:00:00
  TRACK 02 AUDIO
    TITLE "5:cjc083_0782"
    INDEX 01 00:00:27
  TRACK 03 AUDIO
    TITLE "0:"
    INDEX 01 00:01:38
  TRACK 04 AUDIO
    TITLE "6:cjc083_0783"
    INDEX 01 00:02:02
  TRACK 05 AUDIO
    TITLE "0:"
    INDEX 01 00:04:38
  TRACK 06 AUDIO
    TITLE "5:cjc083_0784"
    INDEX 01 00:05:03
  TRACK 07 AUDIO
    TITLE "0:"
    INDEX 01 00:06:14
  TRACK 08 AUDIO
    TITLE "6:cjc083_0785"
    INDEX 01 00:06:55
  TRACK 09 AUDIO
    TITLE "0:"
    INDEX 01 00:08:28
  TRACK 10 AUDIO
    TITLE "5:cjc083_0786"
    INDEX 01 00:08:68
  TRACK 11 AUDIO
    TITLE "0:"
    INDEX 01 00:10:14
  TRACK 12 AUDIO
    TITLE "6:cjc083_0787"
    INDEX 01 00:10:59
  TRACK 13 AUDIO
    TITLE "0:"
    INDEX 01 00:12:01
  TRACK 14 AUDIO
    TITLE "5:cjc083_0788"
    INDEX 01 00:12:40
  TRACK 15 AUDIO
    TITLE "0:"
    INDEX 01 00:13:61
  TRACK 16 AUDIO
    TITLE "6:cjc083_0789"
    INDEX 01 00:14:29
  TRACK 17 AUDIO
    TITLE "0:"
    INDEX 01 00:15:34
  TRACK 18 AUDIO
    TITLE "5:cjc083_0790"
    INDEX 01 00:15:74
  TRACK 19 AUDIO
    TITLE "0:"
    INDEX 01 00:17:16
  TRACK 20 AUDIO
    TITLE "6:cjc083_0791"
    INDEX 01 00:17:57
  TRACK 21 AUDIO
    TITLE "0:"
    INDEX 01 00:18:66
  TRACK 22 AUDIO
    TITLE "5:cjc083_0792"
    INDEX 01 00:19:38
  TRACK 23 AUDIO
    TITLE "0:"
    INDEX 01 00:20:47
  TRACK 24 AUDIO
    TITLE "6:cjc083_0793"
    INDEX 01 00:21:19
  TRACK 25 AUDIO
    TITLE "0:"
    INDEX 01 00:22:32
  TRACK 26 AUDIO
    TITLE "5:cjc083_0794"
    INDEX 01 00:22:70
  TRACK 27 AUDIO
    TITLE "0:"
    INDEX 01 00:24:08
  TRACK 28 AUDIO
    TITLE "6:cjc083_0795"
    INDEX 01 00:24:59
  TRACK 29 AUDIO
    TITLE "0:"
    INDEX 01 00:26:11
  TRACK 30 AUDIO
    TITLE "5:cjc083_0796"
    INDEX 01 00:26:52
  TRACK 31 AUDIO
    TITLE "0:"
    INDEX 01 00:27:65
  TRACK 32 AUDIO
    TITLE "6:cjc083_0797"
    INDEX 01 00:28:33
  TRACK 33 AUDIO
    TITLE "0:"
    INDEX 01 00:29:25
  TRACK 34 AUDIO
    TITLE "5:cjc083_0798"
    INDEX 01 00:29:74
  TRACK 35 AUDIO
    TITLE "0:"
    INDEX 01 00:31:16
  TRACK 36 AUDIO
    TITLE "6:cjc083_0799"
    INDEX 01 00:31:59
  TRACK 37 AUDIO
    TITLE "0:"
    INDEX 01 00:32:66
  TRACK 38 AUDIO
    TITLE "5:cjc083_0800"
    INDEX 01 00:33:42
  TRACK 39 AUDIO
    TITLE "0:"
    INDEX 01 00:35:12
  TRACK 40 AUDIO
    TITLE "6:cjc083_0801"
    INDEX 01 00:35:53
  TRACK 41 AUDIO
    TITLE "0:"
    INDEX 01 00:37:73
  TRACK 42 AUDIO
    TITLE "5:cjc083_0802"
    INDEX 01 00:38:43
  TRACK 43 AUDIO
    TITLE "0:"
    INDEX 01 00:39:52
  TRACK 44 AUDIO
    TITLE "6:cjc083_0803"
    INDEX 01 00:40:28
  TRACK 45 AUDIO
    TITLE "0:"
    INDEX 01 00:42:18
  TRACK 46 AUDIO
    TITLE "5:cjc083_0804"
    INDEX 01 00:42:66
  TRACK 47 AUDIO
    TITLE "0:"
    INDEX 01 00:44:18
  TRACK 48 AUDIO
    TITLE "6:cjc083_0805"
    INDEX 01 00:44:69
  TRACK 49 AUDIO
    TITLE "0:"
    INDEX 01 00:46:37
  TRACK 50 AUDIO
    TITLE "5:cjc083_0806"
    INDEX 01 00:47:07
  TRACK 51 AUDIO
    TITLE "0:"
    INDEX 01 00:48:22
  TRACK 52 AUDIO
    TITLE "6:cjc083_0807"
    INDEX 01 00:48:71
  TRACK 53 AUDIO
    TITLE "0:"
    INDEX 01 00:50:01
  TRACK 54 AUDIO
    TITLE "5:cjc083_0808"
    INDEX 01 00:50:41
  TRACK 55 AUDIO
    TITLE "0:"
    INDEX 01 00:51:56
  TRACK 56 AUDIO
    TITLE "6:cjc083_0809"
    INDEX 01 00:52:20
  TRACK 57 AUDIO
    TITLE "0:"
    INDEX 01 00:53:29
  TRACK 58 AUDIO
    TITLE "5:cjc083_0810"
    INDEX 01 00:53:68
  TRACK 59 AUDIO
    TITLE "0:"
    INDEX 01 00:55:16
  TRACK 60 AUDIO
    TITLE "6:cjc083_0811"
    INDEX 01 00:55:59
  TRACK 61 AUDIO
    TITLE "0:"
    INDEX 01 00:56:69
  TRACK 62 AUDIO
    TITLE "7:cjc083_0812"
    INDEX 01 00:58:28
  TRACK 63 AUDIO
    TITLE "0:"
    INDEX 01 01:08:44
